<svg id="visual" viewBox="0 0 900 600" width="900" height="600" xmlns="http://www.w3.org/2000/svg" xmlns:xlink="http://www.w3.org/1999/xlink" version="1.1"><rect x="0" y="0" width="900" height="600" fill="#001220"></rect><defs><linearGradient id="grad1_0" x1="33.3%" y1="0%" x2="100%" y2="100%"><stop offset="20%" stop-color="#001220" stop-opacity="1"></stop><stop offset="80%" stop-color="#001220" stop-opacity="1"></stop></linearGradient></defs><defs><linearGradient id="grad2_0" x1="0%" y1="0%" x2="66.7%" y2="100%"><stop offset="20%" stop-color="#001220" stop-opacity="1"></stop><stop offset="80%" stop-color="#001220" stop-opacity="1"></stop></linearGradient></defs><g transform="translate(900, 0)"><path d="M0 486.7C-58.8 471.7 -117.5 456.7 -181 437C-244.5 417.3 -312.7 393 -344.2 344.2C-375.7 295.4 -370.4 222.2 -388 160.7C-405.7 99.3 -446.2 49.6 -486.7 0L0 0Z" fill="#FBAE3C"></path></g><g transform="translate(0, 600)"><path d="M0 -486.7C51.8 -449.8 103.6 -412.9 163 -393.6C222.4 -374.2 289.4 -372.4 340.8 -340.8C392.2 -309.3 428 -248 449.7 -186.3C471.4 -124.5 479.1 -62.3 486.7 0L0 0Z" fill="#FBAE3C"></path></g></svg>